<?xml version="1.0" standalone="no"?>
<!DOCTYPE svg PUBLIC "-//W3C//DTD SVG 20010904//EN"
 "http://www.w3.org/TR/2001/REC-SVG-20010904/DTD/svg10.dtd">
<svg version="1.0" xmlns="http://www.w3.org/2000/svg"
 width="512.000000pt" height="512.000000pt" viewBox="0 0 512.000000 512.000000"
 preserveAspectRatio="xMidYMid meet">

<g transform="translate(0.000000,512.000000) scale(0.100000,-0.100000)"
fill="#000000" stroke="none">
<path d="M3690 5113 c-70 -29 -109 -95 -110 -186 0 -174 -83 -383 -207 -528
-160 -187 -358 -285 -619 -307 -81 -7 -108 -13 -134 -32 -35 -25 -70 -90 -70
-130 0 -40 35 -105 70 -130 26 -19 53 -25 134 -32 261 -22 461 -121 621 -308
123 -144 205 -355 205 -527 0 -119 73 -198 173 -190 53 5 91 27 123 75 16 23
23 54 28 127 33 453 365 785 822 823 80 7 112 14 132 29 96 71 96 195 0 266
-20 15 -52 22 -132 29 -457 38 -789 370 -822 823 -7 103 -22 138 -76 178 -27
20 -109 32 -138 20z m131 -862 c67 -92 190 -210 281 -271 37 -25 67 -47 67
-50 0 -3 -30 -25 -67 -50 -117 -79 -282 -251 -348 -365 -9 -16 -18 -7 -69 66
-73 104 -201 231 -300 298 l-75 50 83 57 c105 74 217 186 292 293 51 73 60 82
69 66 6 -10 36 -52 67 -94z"/>
<path d="M1579 3901 c-76 -24 -119 -86 -119 -173 0 -29 -7 -96 -15 -148 -66
-436 -398 -804 -824 -911 -42 -10 -135 -25 -207 -32 -147 -15 -179 -29 -209
-93 -22 -46 -16 -125 12 -162 37 -50 75 -64 202 -73 292 -22 527 -132 729
-343 123 -128 204 -262 255 -421 34 -105 45 -168 55 -296 7 -87 13 -112 32
-139 25 -35 90 -70 130 -70 40 0 105 35 130 70 19 27 25 52 32 139 10 128 21
191 55 296 52 161 132 293 252 419 206 213 439 323 732 345 127 9 165 23 202
73 28 37 34 116 12 162 -30 64 -62 78 -209 93 -273 28 -464 106 -658 268 -225
188 -388 531 -388 818 0 71 -26 127 -72 155 -40 24 -94 34 -129 23z m51 -829
c0 -5 32 -58 72 -118 117 -177 292 -340 496 -461 l32 -19 -96 -60 c-180 -111
-360 -293 -466 -471 -24 -40 -45 -73 -48 -73 -3 0 -18 22 -33 50 -107 191
-315 400 -514 516 l-62 36 87 55 c180 113 326 256 443 432 38 57 69 108 69
113 0 4 5 8 10 8 6 0 10 -4 10 -8z"/>
<path d="M3660 2048 c-59 -41 -71 -66 -80 -174 -24 -279 -179 -504 -422 -613
-77 -35 -189 -61 -260 -61 -109 0 -188 -68 -188 -162 0 -108 47 -146 205 -164
202 -24 351 -97 480 -236 108 -117 185 -304 185 -450 0 -113 75 -193 173 -185
94 8 141 67 150 189 30 380 302 653 683 684 62 5 94 13 116 28 74 50 95 124
59 200 -33 66 -71 86 -189 96 -193 18 -321 77 -457 214 -135 135 -192 262
-213 472 -7 70 -15 98 -32 122 -47 63 -147 82 -210 40z m231 -870 c32 -31 83
-75 114 -98 30 -22 55 -42 55 -44 0 -2 -31 -26 -69 -54 -72 -54 -158 -142
-212 -217 -18 -25 -35 -45 -39 -45 -3 0 -14 15 -25 32 -29 49 -179 202 -241
244 -30 21 -54 38 -54 39 0 1 30 25 68 53 76 57 161 143 216 219 l38 53 46
-63 c25 -34 71 -88 103 -119z"/>
</g>
</svg>
