<?xml version="1.0" standalone="no"?>
<!DOCTYPE svg PUBLIC "-//W3C//DTD SVG 20010904//EN"
 "http://www.w3.org/TR/2001/REC-SVG-20010904/DTD/svg10.dtd">
<svg version="1.0" xmlns="http://www.w3.org/2000/svg"
 width="512.000000pt" height="512.000000pt" viewBox="0 0 512.000000 512.000000"
 preserveAspectRatio="xMidYMid meet">

<g transform="translate(0.000000,512.000000) scale(0.100000,-0.100000)"
fill="#000000" stroke="none">
<path d="M1040 4389 c-151 -8 -340 -37 -474 -71 -114 -29 -129 -47 -134 -154
l-4 -74 -182 0 c-194 0 -208 -4 -235 -57 -17 -33 -15 -3219 2 -3253 7 -14 29
-33 49 -43 l37 -18 128 55 c678 289 1426 352 2195 186 l137 -30 133 29 c164
36 366 67 518 81 230 20 650 8 849 -26 333 -55 580 -127 842 -242 128 -57 154
-58 194 -10 l25 30 0 1609 c0 1751 3 1651 -55 1677 -17 8 -88 12 -205 12
l-180 0 0 76 c0 85 -9 108 -48 128 -72 36 -344 82 -573 95 -582 35 -1067 -108
-1424 -418 l-79 -69 -72 67 c-212 198 -521 339 -869 395 -94 15 -360 37 -415
34 -14 0 -86 -4 -160 -9z m553 -228 c332 -63 580 -182 782 -373 l85 -80 0
-1234 c0 -679 -2 -1234 -5 -1234 -3 0 -24 12 -48 27 -164 104 -446 199 -718
242 -304 49 -578 53 -981 15 l-78 -7 0 1305 0 1305 83 16 c73 14 169 28 277
41 19 2 139 3 265 1 181 -2 253 -8 338 -24z m2683 5 c61 -9 133 -22 160 -29
l49 -12 3 -1304 2 -1304 -77 7 c-228 21 -313 26 -469 26 -459 0 -863 -87
-1181 -255 l-103 -54 0 1233 0 1233 68 67 c233 229 506 346 957 410 71 10 486
-3 591 -18z m-3836 -1539 l0 -1263 21 -23 c32 -34 60 -41 131 -30 150 22 408
39 593 39 275 0 506 -30 725 -94 l85 -25 -95 7 c-150 11 -584 7 -705 -6 -311
-36 -646 -117 -927 -225 l-68 -26 0 1454 0 1455 120 0 120 0 0 -1263z m4480
-192 l0 -1454 -67 26 c-326 123 -688 205 -1037 234 -137 11 -515 7 -646 -6
-38 -4 -32 -1 35 20 112 34 309 72 450 86 150 15 593 6 760 -15 143 -19 199
-20 227 -5 49 26 48 -10 48 1324 l0 1245 115 0 115 0 0 -1455z"/>
</g>
</svg>
