<?xml version="1.0" standalone="no"?>
<!DOCTYPE svg PUBLIC "-//W3C//DTD SVG 20010904//EN"
 "http://www.w3.org/TR/2001/REC-SVG-20010904/DTD/svg10.dtd">
<svg version="1.0" xmlns="http://www.w3.org/2000/svg"
 width="512.000000pt" height="512.000000pt" viewBox="0 0 512.000000 512.000000"
 preserveAspectRatio="xMidYMid meet">

<g transform="translate(0.000000,512.000000) scale(0.100000,-0.100000)"
fill="#000000" stroke="none">
<path d="M3990 5101 c-91 -29 -119 -49 -236 -162 -61 -60 -115 -109 -119 -109
-5 0 -57 47 -115 105 -119 116 -180 152 -282 164 -83 10 -157 -2 -235 -39 -59
-27 -95 -59 -290 -253 -193 -194 -226 -232 -253 -289 -59 -126 -59 -240 0
-365 25 -55 61 -96 232 -269 l202 -205 -727 -727 -726 -726 -198 195 c-207
205 -245 236 -328 262 -114 35 -203 29 -313 -23 -57 -27 -95 -60 -289 -253
-194 -195 -226 -231 -253 -289 -55 -118 -57 -241 -6 -354 19 -42 56 -87 131
-164 58 -58 105 -110 105 -115 0 -4 -49 -58 -109 -120 -60 -61 -118 -129 -129
-150 -67 -132 -68 -265 -3 -395 32 -63 708 -739 771 -771 130 -65 263 -64 395
3 21 11 89 69 150 129 62 60 116 109 120 109 5 0 57 -47 115 -105 119 -116
180 -152 282 -164 83 -10 157 2 236 39 59 27 94 58 289 254 193 193 227 231
253 288 59 126 59 240 0 365 -25 55 -61 96 -232 269 l-202 205 726 726 727
727 205 -202 c173 -171 216 -208 269 -233 125 -58 239 -58 366 1 58 27 94 59
288 254 194 194 226 231 254 289 36 78 48 152 38 235 -12 102 -48 163 -164
282 -58 58 -105 110 -105 115 0 4 49 58 109 120 60 61 118 129 129 150 67 132
68 265 3 395 -32 63 -708 739 -771 771 -102 51 -213 62 -310 30z m472 -639
c279 -279 328 -332 328 -356 0 -23 -20 -49 -100 -130 l-100 -101 -357 358
-358 357 101 100 c81 80 107 100 130 100 24 0 77 -49 356 -328z m-479 -449
c423 -423 775 -781 782 -798 9 -20 10 -37 3 -55 -11 -31 -362 -385 -402 -406
-22 -12 -34 -13 -55 -4 -38 15 -1571 1551 -1571 1573 0 37 34 77 217 259 173
171 200 193 243 197 8 0 360 -344 783 -766z m-1260 -1615 l-728 -728 -162 162
-163 163 727 727 728 728 162 -162 163 -163 -727 -727z m-1129 -797 c745 -744
780 -781 780 -816 0 -33 -14 -50 -189 -226 -105 -105 -203 -197 -219 -204 -20
-9 -38 -10 -56 -4 -36 13 -1560 1539 -1561 1564 -1 11 0 29 1 40 2 22 346 375
395 406 17 10 39 19 50 19 13 0 292 -272 799 -779z m-704 -716 l355 -355 -101
-100 c-81 -80 -107 -100 -130 -100 -24 0 -77 49 -356 328 -278 278 -328 332
-328 356 0 23 20 49 97 127 53 55 99 99 102 99 4 0 166 -160 361 -355z"/>
</g>
</svg>
